<svg xmlns="http://www.w3.org/2000/svg" viewBox="0 0 634.18 607.68"><defs><style>.cls-1{fill:#fff;}</style></defs><title>Asset 24logo</title><g id="Layer_2" data-name="Layer 2"><g id="logIn"><path class="cls-1" d="M505.7,76.78A302.57,302.57,0,0,0,305,0C139.21-.62,2.3,133.78,0,299.58c-2.33,169.75,134.6,308.1,303.82,308.1a302.53,302.53,0,0,0,200-75.11L276.86,305.63ZM336.26,66.46a39.33,39.33,0,1,1-33.88,33.87A39.33,39.33,0,0,1,336.26,66.46Z"/><path class="cls-1" d="M429,290.49a66.91,66.91,0,0,0-14.59-41.1l28.43-29.19a108.15,108.15,0,0,1-19.28,159.57L393.74,350.7A67.54,67.54,0,0,0,429,290.49Z"/><path class="cls-1" d="M480.23,434.68,451,406.22a145.83,145.83,0,0,0,18.24-213.36l28.29-29.05a186.31,186.31,0,0,1-17.31,270.87Z"/><path class="cls-1" d="M634.16,287.41a270.81,270.81,0,0,1-91.8,207.66l-29.1-28.33a232.15,232.15,0,0,0,16.29-335.92l28.27-29A272.17,272.17,0,0,1,634.16,287.41Z"/></g></g></svg>